<?xml version="1.0" standalone="no"?>
<!DOCTYPE svg PUBLIC "-//W3C//DTD SVG 20010904//EN"
 "http://www.w3.org/TR/2001/REC-SVG-20010904/DTD/svg10.dtd">
<svg version="1.0" xmlns="http://www.w3.org/2000/svg"
 width="721.000000pt" height="721.000000pt" viewBox="0 0 721.000000 721.000000"
 preserveAspectRatio="xMidYMid meet">

<g transform="translate(0.000000,721.000000) scale(0.100000,-0.100000)"
fill="#5e7136" stroke="none">
<path d="M5125 4930 c-400 -72 -628 -480 -576 -1030 23 -244 72 -423 167 -615
71 -141 150 -259 319 -470 151 -189 241 -317 250 -356 4 -17 1 -32 -10 -42
-19 -20 -39 -13 -114 37 -59 40 -69 43 -77 21 -19 -48 43 -118 125 -142 39
-11 73 -14 119 -9 176 18 175 87 -5 308 -37 46 -115 142 -173 215 -205 254
-298 493 -351 901 -26 197 -31 516 -11 622 45 232 143 378 289 434 73 27 187
32 258 11 194 -56 363 -258 460 -548 137 -411 105 -831 -84 -1118 -27 -41 -95
-125 -150 -187 -56 -62 -101 -117 -101 -124 0 -21 97 -1 143 30 64 45 176 167
239 262 162 245 238 493 238 774 0 513 -251 901 -655 1012 -64 18 -235 26
-300 14z"/>
<path d="M1826 4870 c-40 -13 -66 -39 -66 -68 0 -39 54 -129 143 -238 45 -56
120 -149 167 -207 104 -128 167 -233 220 -364 80 -200 128 -438 151 -753 19
-269 -8 -479 -81 -626 -71 -145 -175 -219 -336 -239 -57 -7 -163 14 -222 44
-246 126 -441 531 -459 956 -15 363 74 604 325 877 84 91 99 116 78 124 -7 3
-32 1 -53 -5 -162 -44 -392 -352 -492 -657 -61 -188 -79 -444 -45 -645 64
-378 281 -660 589 -765 104 -36 283 -45 389 -20 372 87 581 477 537 1000 -35
422 -147 680 -469 1084 -234 292 -288 375 -265 410 16 26 58 17 112 -22 57
-42 91 -47 91 -13 0 34 -34 81 -76 108 -31 19 -54 24 -123 26 -47 1 -99 -2
-115 -7z"/>
<path d="M2958 4861 c-128 -42 -277 -145 -380 -264 -127 -146 -188 -238 -188
-284 0 -88 36 -85 139 10 87 82 134 108 204 115 100 10 218 -55 289 -159 56
-81 61 -127 42 -348 -25 -276 -3 -477 82 -759 43 -142 130 -365 191 -486 105
-210 227 -371 276 -364 38 5 25 55 -46 185 -90 163 -151 303 -208 473 -118
357 -132 591 -67 1189 13 120 21 268 22 381 1 178 0 187 -24 234 -39 78 -64
91 -178 93 -73 2 -111 -2 -154 -16z m90 -114 c30 -31 40 -70 56 -202 15 -125
9 -153 -27 -134 -12 7 -40 27 -62 44 -82 67 -146 80 -284 60 l-54 -7 22 30
c32 46 148 150 215 193 68 45 103 49 134 16z"/>
<path d="M3583 4863 c-5 -11 25 -78 84 -193 243 -468 325 -821 294 -1265 -7
-88 -23 -275 -37 -415 -33 -332 -31 -502 6 -575 33 -63 72 -86 158 -92 115 -8
247 35 372 120 74 51 198 176 270 272 85 114 102 147 98 193 -3 32 -7 37 -31
40 -22 3 -42 -10 -104 -67 -42 -39 -96 -80 -119 -91 -107 -52 -211 -29 -318
71 -112 104 -125 163 -98 458 14 152 11 250 -14 411 -49 316 -217 753 -389
1008 -78 118 -154 172 -172 125z m620 -2112 c37 -28 84 -55 104 -62 36 -12
162 -8 212 7 21 6 22 5 13 -13 -30 -56 -211 -211 -278 -239 -79 -33 -117 26
-139 213 -19 166 -16 169 88 94z"/>
</g>
</svg>
